<svg width="54" height="54" viewBox="0 0 54 54" fill="none" xmlns="http://www.w3.org/2000/svg">
<rect width="54" height="54" rx="27" fill="#222326"/>
<path d="M22.8 17H31.2C34.4 17 37 19.6 37 22.8V31.2C37 32.7383 36.3889 34.2135 35.3012 35.3012C34.2135 36.3889 32.7383 37 31.2 37H22.8C19.6 37 17 34.4 17 31.2V22.8C17 21.2617 17.6111 19.7865 18.6988 18.6988C19.7865 17.6111 21.2617 17 22.8 17ZM22.6 19C21.6452 19 20.7295 19.3793 20.0544 20.0544C19.3793 20.7295 19 21.6452 19 22.6V31.4C19 33.39 20.61 35 22.6 35H31.4C32.3548 35 33.2705 34.6207 33.9456 33.9456C34.6207 33.2705 35 32.3548 35 31.4V22.6C35 20.61 33.39 19 31.4 19H22.6ZM32.25 20.5C32.5815 20.5 32.8995 20.6317 33.1339 20.8661C33.3683 21.1005 33.5 21.4185 33.5 21.75C33.5 22.0815 33.3683 22.3995 33.1339 22.6339C32.8995 22.8683 32.5815 23 32.25 23C31.9185 23 31.6005 22.8683 31.3661 22.6339C31.1317 22.3995 31 22.0815 31 21.75C31 21.4185 31.1317 21.1005 31.3661 20.8661C31.6005 20.6317 31.9185 20.5 32.25 20.5ZM27 22C28.3261 22 29.5979 22.5268 30.5355 23.4645C31.4732 24.4021 32 25.6739 32 27C32 28.3261 31.4732 29.5979 30.5355 30.5355C29.5979 31.4732 28.3261 32 27 32C25.6739 32 24.4021 31.4732 23.4645 30.5355C22.5268 29.5979 22 28.3261 22 27C22 25.6739 22.5268 24.4021 23.4645 23.4645C24.4021 22.5268 25.6739 22 27 22ZM27 24C26.2044 24 25.4413 24.3161 24.8787 24.8787C24.3161 25.4413 24 26.2044 24 27C24 27.7956 24.3161 28.5587 24.8787 29.1213C25.4413 29.6839 26.2044 30 27 30C27.7956 30 28.5587 29.6839 29.1213 29.1213C29.6839 28.5587 30 27.7956 30 27C30 26.2044 29.6839 25.4413 29.1213 24.8787C28.5587 24.3161 27.7956 24 27 24Z" fill="white"/>
</svg>
