<svg width="54" height="54" viewBox="0 0 54 54" fill="none" xmlns="http://www.w3.org/2000/svg">
<rect width="54" height="54" rx="27" fill="#222326"/>
<path fill-rule="evenodd" clip-rule="evenodd" d="M27.1161 22.6285V24.679C27.5454 24.0248 28.1372 23.4932 28.8337 23.1365C29.5302 22.7798 30.3074 22.6102 31.0891 22.6442C35.2639 22.6442 36.1665 25.2542 36.1665 28.6496V35.5625H32.2999V29.4338C32.2999 27.9718 32.005 26.0916 29.7285 26.0916C27.5209 26.0916 27.1439 27.683 27.1439 29.3251V35.5625H23.2893V22.6285H27.1161ZM20.6999 19.3781C20.6994 19.7611 20.5859 20.1355 20.3735 20.4543C20.1611 20.7731 19.8593 21.0221 19.506 21.17C19.1529 21.3168 18.764 21.3552 18.389 21.2803C18.0139 21.2055 17.6696 21.0207 17.3999 20.7495C17.1297 20.4782 16.9457 20.1331 16.8711 19.7575C16.7966 19.3819 16.8347 18.9926 16.9808 18.6386C17.1268 18.2846 17.3743 17.9817 17.692 17.768C18.0098 17.5543 18.3836 17.4393 18.7665 17.4375C19.021 17.4377 19.2729 17.488 19.5079 17.5857C19.7428 17.6834 19.9562 17.8264 20.1358 18.0067C20.3154 18.1869 20.4577 18.4009 20.5545 18.6362C20.6513 18.8715 20.7007 19.1236 20.6999 19.3781Z" fill="white"/>
<path d="M20.7 22.6443H16.8333V35.5626H20.7V22.6443Z" fill="white"/>
</svg>
