<svg width="35" height="35" viewBox="0 0 35 35" fill="none" xmlns="http://www.w3.org/2000/svg">
<path d="M28.9844 13.125C28.986 11.1787 28.4929 9.26391 27.5515 7.56044C26.6101 5.85698 25.2511 4.42071 23.6023 3.38653C21.9535 2.35234 20.0689 1.75416 18.1255 1.64815C16.1821 1.54215 14.2436 1.93179 12.4921 2.7805C10.7406 3.62921 9.2335 4.90914 8.11237 6.50011C6.99123 8.09107 6.29283 9.94087 6.08273 11.8758C5.87264 13.8107 6.15775 15.7673 6.91129 17.5618C7.66483 19.3563 8.86209 20.9299 10.3906 22.1348V32.8125C10.3906 32.9575 10.4482 33.0966 10.5508 33.1992C10.6534 33.3018 10.7925 33.3594 10.9375 33.3594C11.0224 33.3593 11.1061 33.3396 11.1822 33.302L17.5 30.1424L23.8191 33.302C23.9025 33.3434 23.995 33.3628 24.088 33.3585C24.181 33.3542 24.2713 33.3261 24.3505 33.2771C24.4296 33.2281 24.4949 33.1597 24.5402 33.0784C24.5855 32.9971 24.6093 32.9056 24.6094 32.8125V22.1348C25.9725 21.0617 27.0745 19.6933 27.8323 18.1327C28.5901 16.5721 28.984 14.8599 28.9844 13.125ZM23.5156 31.9279L17.7434 29.0418C17.6674 29.0038 17.5836 28.984 17.4986 28.984C17.4137 28.984 17.3299 29.0038 17.2539 29.0418L11.4844 31.9279V22.9045C13.2926 24.0201 15.3754 24.6108 17.5 24.6108C19.6246 24.6108 21.7074 24.0201 23.5156 22.9045V31.9279ZM17.5 23.5156C15.4449 23.5156 13.436 22.9062 11.7273 21.7645C10.0185 20.6228 8.68676 19 7.90031 17.1013C7.11387 15.2027 6.9081 13.1135 7.30903 11.0979C7.70995 9.08231 8.69956 7.23088 10.1527 5.77772C11.6059 4.32457 13.4573 3.33496 15.4729 2.93403C17.4885 2.53311 19.5777 2.73888 21.4763 3.52532C23.375 4.31176 24.9978 5.64355 26.1395 7.35228C27.2812 9.06101 27.8906 11.0699 27.8906 13.125C27.8877 15.8799 26.7921 18.5211 24.8441 20.4691C22.8961 22.4171 20.2549 23.5127 17.5 23.5156ZM17.5 6.01563C16.0939 6.01563 14.7194 6.43259 13.5502 7.21378C12.3811 7.99496 11.4699 9.1053 10.9318 10.4044C10.3937 11.7034 10.2529 13.1329 10.5272 14.512C10.8015 15.8911 11.4786 17.1578 12.4729 18.1521C13.4672 19.1464 14.7339 19.8235 16.113 20.0978C17.4921 20.3721 18.9216 20.2313 20.2206 19.6932C21.5197 19.1551 22.63 18.2439 23.4112 17.0748C24.1924 15.9056 24.6094 14.5311 24.6094 13.125C24.6072 11.2401 23.8575 9.43311 22.5247 8.10032C21.1919 6.76752 19.3849 6.0178 17.5 6.01563ZM17.5 19.1406C16.3102 19.1406 15.1472 18.7878 14.1579 18.1268C13.1686 17.4658 12.3976 16.5263 11.9423 15.4271C11.487 14.3279 11.3678 13.1183 11.6 11.9514C11.8321 10.7845 12.405 9.71262 13.2463 8.87132C14.0876 8.03002 15.1595 7.45708 16.3264 7.22497C17.4933 6.99285 18.7029 7.11198 19.8021 7.56729C20.9013 8.0226 21.8408 8.79364 22.5018 9.7829C23.1628 10.7722 23.5156 11.9352 23.5156 13.125C23.5138 14.7199 22.8794 16.2489 21.7517 17.3767C20.6239 18.5045 19.0949 19.1388 17.5 19.1406Z" fill="#FFD231"/>
</svg>
