<svg width="48" height="49" viewBox="0 0 48 49" fill="none" xmlns="http://www.w3.org/2000/svg">
<path d="M26.9164 20.0106C26.6044 20.0106 26.3507 19.7574 26.3507 19.445V18.4836C26.3507 18.1716 26.604 17.918 26.9164 17.918C27.2284 17.918 27.4821 18.1712 27.4821 18.4836V19.445C27.4821 19.7574 27.2284 20.0106 26.9164 20.0106Z" fill="#FAD32F"/>
<path d="M24.5381 20.0106C24.2261 20.0106 23.9724 19.7574 23.9724 19.445V18.4836C23.9724 18.1716 24.2257 17.918 24.5381 17.918C24.8501 17.918 25.1038 18.1712 25.1038 18.4836V19.445C25.1034 19.7574 24.8505 20.0106 24.5381 20.0106Z" fill="#FAD32F"/>
<path d="M22.16 20.0106C21.848 20.0106 21.5944 19.7574 21.5944 19.445V18.4836C21.5944 18.1716 21.8476 17.918 22.16 17.918C22.4721 17.918 22.7257 18.1712 22.7257 18.4836V19.445C22.7257 19.7574 22.4725 20.0106 22.16 20.0106Z" fill="#FAD32F"/>
<path d="M26.9164 23.9419C26.6044 23.9419 26.3507 23.6886 26.3507 23.3762V22.4153C26.3507 22.1033 26.604 21.8496 26.9164 21.8496C27.2284 21.8496 27.4821 22.1029 27.4821 22.4153V23.3762C27.4821 23.6886 27.2284 23.9419 26.9164 23.9419Z" fill="#FAD32F"/>
<path d="M24.5381 23.9419C24.2261 23.9419 23.9724 23.6886 23.9724 23.3762V22.4153C23.9724 22.1033 24.2257 21.8496 24.5381 21.8496C24.8501 21.8496 25.1038 22.1029 25.1038 22.4153V23.3762C25.1034 23.6886 24.8505 23.9419 24.5381 23.9419Z" fill="#FAD32F"/>
<path d="M22.16 23.9419C21.848 23.9419 21.5944 23.6886 21.5944 23.3762V22.4153C21.5944 22.1033 21.8476 21.8496 22.16 21.8496C22.4721 21.8496 22.7257 22.1029 22.7257 22.4153V23.3762C22.7257 23.6886 22.4725 23.9419 22.16 23.9419Z" fill="#FAD32F"/>
<path d="M26.9164 27.8734C26.6044 27.8734 26.3507 27.6202 26.3507 27.3078V26.3464C26.3507 26.0344 26.604 25.7808 26.9164 25.7808C27.2284 25.7808 27.4821 26.034 27.4821 26.3464V27.3078C27.4821 27.6202 27.2284 27.8734 26.9164 27.8734Z" fill="#FAD32F"/>
<path d="M24.5381 27.8734C24.2261 27.8734 23.9724 27.6202 23.9724 27.3078V26.3464C23.9724 26.0344 24.2257 25.7808 24.5381 25.7808C24.8501 25.7808 25.1038 26.034 25.1038 26.3464V27.3078C25.1034 27.6202 24.8505 27.8734 24.5381 27.8734Z" fill="#FAD32F"/>
<path d="M22.16 27.8734C21.848 27.8734 21.5944 27.6202 21.5944 27.3078V26.3464C21.5944 26.0344 21.8476 25.7808 22.16 25.7808C22.4721 25.7808 22.7257 26.034 22.7257 26.3464V27.3078C22.7257 27.6202 22.4725 27.8734 22.16 27.8734Z" fill="#FAD32F"/>
<path d="M26.9164 31.8036C26.6044 31.8036 26.3507 31.5504 26.3507 31.2379V30.2766C26.3507 29.9646 26.604 29.7109 26.9164 29.7109C27.2284 29.7109 27.4821 29.9642 27.4821 30.2766V31.2379C27.4821 31.5504 27.2284 31.8036 26.9164 31.8036Z" fill="#FAD32F"/>
<path d="M24.5381 31.8036C24.2261 31.8036 23.9724 31.5504 23.9724 31.2379V30.2766C23.9724 29.9646 24.2257 29.7109 24.5381 29.7109C24.8501 29.7109 25.1038 29.9642 25.1038 30.2766V31.2379C25.1034 31.5504 24.8505 31.8036 24.5381 31.8036Z" fill="#FAD32F"/>
<path d="M22.16 31.8036C21.848 31.8036 21.5944 31.5504 21.5944 31.2379V30.2766C21.5944 29.9646 21.8476 29.7109 22.16 29.7109C22.4721 29.7109 22.7257 29.9642 22.7257 30.2766V31.2379C22.7257 31.5504 22.4725 31.8036 22.16 31.8036Z" fill="#FAD32F"/>
<path d="M26.9164 35.7349C26.6044 35.7349 26.3507 35.4816 26.3507 35.1692V34.2083C26.3507 33.8962 26.604 33.6426 26.9164 33.6426C27.2284 33.6426 27.4821 33.8958 27.4821 34.2083V35.1692C27.4821 35.4812 27.2284 35.7349 26.9164 35.7349Z" fill="#FAD32F"/>
<path d="M24.5381 35.7349C24.2261 35.7349 23.9724 35.4816 23.9724 35.1692V34.2083C23.9724 33.8962 24.2257 33.6426 24.5381 33.6426C24.8501 33.6426 25.1038 33.8958 25.1038 34.2083V35.1692C25.1034 35.4812 24.8505 35.7349 24.5381 35.7349Z" fill="#FAD32F"/>
<path d="M22.16 35.7349C21.848 35.7349 21.5944 35.4816 21.5944 35.1692L21.5948 34.2083C21.5948 33.8962 21.848 33.6426 22.1604 33.6426C22.4725 33.6426 22.7261 33.8958 22.7261 34.2083V35.1692C22.7257 35.4812 22.4725 35.7349 22.16 35.7349Z" fill="#FAD32F"/>
<path d="M6.00047 39.6471C6.00047 39.9592 6.25372 40.2128 6.56615 40.2128H41.0139C41.3259 40.2128 41.5796 39.9596 41.5796 39.6471C41.5796 39.3351 41.3263 39.0815 41.0139 39.0815H39.9682V22.8402C39.9682 22.5281 39.715 22.2745 39.4025 22.2745L30.1668 22.2749V10.5658C30.1668 10.3677 30.0635 10.1847 29.8946 10.0821C29.7262 9.97919 29.5156 9.97287 29.3404 10.064L18.8401 15.531C18.6527 15.6284 18.5359 15.8217 18.5359 16.0327V26.2604H8.37388C8.06186 26.2604 7.8082 26.5137 7.8082 26.8261V39.0816H6.56489C6.25287 39.0812 6 39.3344 6 39.6468L6.00047 39.6471ZM30.167 30.8422H38.8374V39.0819L30.167 39.0815V30.8422ZM30.167 26.9113H38.8374V29.7113L30.167 29.7109V26.9113ZM30.167 23.4056H38.8374V25.7808H30.167V23.4056ZM19.6667 16.3762L29.0353 11.4982V39.081H19.6667V16.3762ZM11.7359 34.5635C11.7359 33.3895 12.666 32.4341 13.8096 32.4341C14.9531 32.4341 15.8837 33.3891 15.8837 34.5635V39.0817H11.7359V34.5635ZM8.93952 27.3916H18.5358V39.0815H17.015V34.5633C17.015 32.7657 15.5776 31.303 13.8096 31.303C12.0424 31.303 10.605 32.7653 10.605 34.5633V39.0815H8.93952V27.3916Z" fill="#FAD32F"/>
</svg>
