<svg width="42" height="42" viewBox="0 0 42 42" fill="none" xmlns="http://www.w3.org/2000/svg">
<g clip-path="url(#clip0_350_10)">
<path d="M19.0141 11.0997C18.8079 10.514 18.4251 10.0066 17.9184 9.64768C17.4117 9.28874 16.806 9.09588 16.1851 9.0957H13.8601C13.2005 9.09755 12.5648 9.34266 12.0747 9.78407C11.5846 10.2255 11.2746 10.8322 11.204 11.488C11.1334 12.1437 11.3072 12.8025 11.6921 13.3381C12.077 13.8737 12.646 14.2485 13.2901 14.3907L16.8241 15.1647C17.5472 15.3225 18.1865 15.7421 18.6189 16.3427C19.0514 16.9434 19.2466 17.6827 19.1669 18.4186C19.0873 19.1544 18.7384 19.8348 18.1874 20.329C17.6365 20.8232 16.9222 21.0963 16.1821 21.0957H14.1811C13.5608 21.096 12.9558 20.904 12.4491 20.5462C11.9425 20.1884 11.5592 19.6823 11.3521 19.0977M15.1861 9.0957V6.0957M15.1861 24.0957V21.0957M20.9071 40.4967V24.7467C20.9071 23.7521 21.3022 22.7983 22.0054 22.0951C22.7087 21.3918 23.6625 20.9967 24.6571 20.9967C25.6516 20.9967 26.6055 21.3918 27.3087 22.0951C28.012 22.7983 28.4071 23.7521 28.4071 24.7467V32.9967H34.4071C35.9984 32.9967 37.5245 33.6288 38.6497 34.7541C39.7749 35.8793 40.4071 37.4054 40.4071 38.9967V40.4967" stroke="#FFD233" stroke-width="3" stroke-linecap="round" stroke-linejoin="round"/>
<path d="M15.189 28.6919C12.4212 28.6915 9.71938 27.8462 7.4449 26.2689C5.17041 24.6916 3.43163 22.4576 2.46104 19.8654C1.49045 17.2733 1.3343 14.4467 2.01348 11.7634C2.69265 9.0802 4.17478 6.66823 6.26169 4.85003C8.34861 3.03182 10.9409 1.89403 13.6918 1.58878C16.4428 1.28354 19.2214 1.82538 21.6562 3.14187C24.0909 4.45835 26.0657 6.48674 27.3166 8.95583C28.5675 11.4249 29.0348 14.217 28.656 16.9589" stroke="#FFD233" stroke-width="3" stroke-linecap="round"/>
</g>
<defs>
<clipPath id="clip0_350_10">
<rect width="42" height="42" fill="white"/>
</clipPath>
</defs>
</svg>
