<svg width="35" height="35" viewBox="0 0 35 35" fill="none" xmlns="http://www.w3.org/2000/svg">
<path d="M25.5208 27.7084H32.0833M32.0833 27.7084L28.4375 24.0626M32.0833 27.7084L28.4375 31.3542M17.5 2.91675L13.8541 6.56258L17.5 10.2084" stroke="#FFD231" stroke-width="1.5" stroke-linecap="round" stroke-linejoin="round"/>
<path d="M15.3125 6.5625C18.2133 6.5625 20.9953 7.71484 23.0464 9.76602C25.0976 11.8172 26.25 14.5992 26.25 17.5C26.25 20.4008 25.0976 23.1828 23.0464 25.234C20.9953 27.2852 18.2133 28.4375 15.3125 28.4375H2.91663" stroke="#FFD231" stroke-width="1.5" stroke-linecap="round" stroke-linejoin="round"/>
<path d="M9.8525 8.021C8.18713 8.98045 6.80399 10.3618 5.84238 12.0259C4.88077 13.69 4.37465 15.5782 4.375 17.5002C4.375 19.9618 5.18875 22.2339 6.5625 24.0627" stroke="#FFD231" stroke-width="1.5" stroke-linecap="round" stroke-linejoin="round"/>
</svg>
