<svg width="35" height="35" viewBox="0 0 35 35" fill="none" xmlns="http://www.w3.org/2000/svg">
<path d="M17.5 27.6603C23.9896 27.6603 31.7188 21.6957 31.7188 17.5001C31.7188 13.3044 23.9896 7.33984 17.5 7.33984M17.5 27.6603C11.0104 27.6603 3.28125 21.6957 3.28125 17.5001C3.28125 13.3044 11.0104 7.33984 17.5 7.33984" stroke="#FFD231" stroke-linecap="round" stroke-linejoin="round"/>
<path d="M11.875 14.375C11.875 15.038 12.1384 15.6739 12.6072 16.1428C13.0761 16.6116 13.712 16.875 14.375 16.875C15.038 16.875 15.6739 16.6116 16.1428 16.1428C16.6116 15.6739 16.875 15.038 16.875 14.375C16.875 13.712 16.6116 13.0761 16.1428 12.6072C15.6739 12.1384 15.038 11.875 14.375 11.875C13.712 11.875 13.0761 12.1384 12.6072 12.6072C12.1384 13.0761 11.875 13.712 11.875 14.375Z" stroke="#FFD231" stroke-linecap="round" stroke-linejoin="round"/>
<path d="M14.375 11.875V14.375H16.875M15.625 20.625V23.125M20.625 18.75V23.125M18.125 18.125V23.125M23.125 17.5V23.125" stroke="#FFD231" stroke-linecap="round" stroke-linejoin="round"/>
</svg>
