<svg width="759" height="1128" viewBox="0 0 759 1128" fill="none" xmlns="http://www.w3.org/2000/svg">
<g filter="url(#filter0_d_70_347)">
<path fill-rule="evenodd" clip-rule="evenodd" d="M655.853 -241.679C648.753 -250.141 636.138 -251.244 627.677 -244.144L210 106.328V162.028L289.167 201.384L370.333 161.034V59.324C370.333 58.1852 370.978 57.1446 371.998 56.6377L455.331 15.2102C456.172 14.7921 457.161 14.7921 458.002 15.2102L539.667 55.808L621.331 15.2102C622.172 14.7921 623.161 14.7921 624.002 15.2102L707.335 56.6377C708.355 57.1446 709 58.1852 709 59.324V161.034L790.669 201.634C791.689 202.141 792.333 203.181 792.333 204.32V307.889C792.333 309.027 791.689 310.068 790.669 310.575L709 351.175V451.357L790.669 491.957C791.689 492.464 792.333 493.505 792.333 494.643V598.212C792.333 599.351 791.689 600.391 790.669 600.898L709 641.498V741.68L790.669 782.28C791.689 782.787 792.333 783.828 792.333 784.967V887.173L873.669 927.608C874.689 928.115 875.333 929.155 875.333 930.294V983.311L1334.41 598.103C1342.87 591.003 1343.97 578.388 1336.87 569.926L655.853 -241.679ZM869.333 988.345V932.153L789 892.217L708.667 932.153V1032L776.886 1065.92L869.333 988.345ZM771.872 1070.13L705.667 1037.21L649.754 1065.01L689.874 1112.82C696.974 1121.28 709.589 1122.39 718.05 1115.29L771.872 1070.13ZM645.786 1060.28L702.667 1032V932.153L622.333 892.217L542 932.153V936.593L645.786 1060.28ZM539.333 746.89L459.667 786.494V838.472L527.632 919.47L540 925.618L619.667 886.014V786.826L539.333 746.89ZM453 830.527L388.178 753.275L453 785.5V830.527ZM456.667 780.622L378.532 741.779L376.333 739.159V641.498L456.333 601.728L536.333 641.498V741.018L456.667 780.622ZM706 926.612L626.333 887.008V786.494L706 746.89L786.333 786.826V886.676L706 926.612ZM703 741.68L624 780.954L543 740.686V641.498L622.667 601.894L703 641.83V741.68ZM619.667 596.353L540.333 635.792L459.667 595.69V496.502L539.667 456.732L619.667 496.502V596.353ZM453 496.171V596.022L372.667 635.958L293.333 596.519V496.336L373.333 456.566L453 496.171ZM291.167 602.142L370.333 641.498V732.008L270.136 612.597L291.167 602.142ZM287 597.513V497.331L207 457.56L159.753 481.048L266.168 607.869L287 597.513ZM210 452.351L289.167 491.707L370.333 451.357V351.175L291.167 311.819L210 352.169V452.351ZM49.3703 349.499L155.786 476.32L204 452.351V352.501L123.667 312.565L49.3703 349.499ZM623 491.127L543 451.357V351.175L622.667 311.57L703 351.506V451.357L623 491.127ZM626.333 596.685V496.171L706 456.566L786.333 496.502V596.353L706 636.289L626.333 596.685ZM456.667 311.57L376.333 351.506V451.357L456.333 491.127L536.333 451.357V351.175L456.667 311.57ZM45.2066 344.537L120.667 307.024V207.173L101.295 197.543L11.321 273.04C2.85947 280.14 1.75582 292.755 8.85585 301.216L45.2066 344.537ZM106.309 193.335L123.667 201.964L204 162.028V111.363L106.309 193.335ZM287 207.007V307.19L207 346.96L126.667 307.024V207.173L207 167.237L287 207.007ZM293.333 306.195L373.333 345.966L453 306.361V205.847L373.333 166.243L293.333 206.013V306.195ZM543 161.034L623 200.804L703 161.034V61.1829L622.667 21.2469L543 60.8515V161.034ZM626.333 205.847V306.361L706 345.966L786.333 306.03V206.179L706 166.243L626.333 205.847ZM456.667 21.2469L536.333 60.8515V161.034L456.333 200.804L376.333 161.034V61.1829L456.667 21.2469ZM619.667 206.179L539.667 166.409L459.667 206.179V306.03L539.667 345.8L619.667 306.03V206.179Z" fill="#FAD32F"/>
</g>
<defs>
<filter id="filter0_d_70_347" x="0.17627" y="-248.824" width="1345.37" height="1376.79" filterUnits="userSpaceOnUse" color-interpolation-filters="sRGB">
<feFlood flood-opacity="0" result="BackgroundImageFix"/>
<feColorMatrix in="SourceAlpha" type="matrix" values="0 0 0 0 0 0 0 0 0 0 0 0 0 0 0 0 0 0 127 0" result="hardAlpha"/>
<feOffset dy="4"/>
<feGaussianBlur stdDeviation="2"/>
<feComposite in2="hardAlpha" operator="out"/>
<feColorMatrix type="matrix" values="0 0 0 0 0 0 0 0 0 0 0 0 0 0 0 0 0 0 0.25 0"/>
<feBlend mode="normal" in2="BackgroundImageFix" result="effect1_dropShadow_70_347"/>
<feBlend mode="normal" in="SourceGraphic" in2="effect1_dropShadow_70_347" result="shape"/>
</filter>
</defs>
</svg>
