<svg width="35" height="35" viewBox="0 0 35 35" fill="none" xmlns="http://www.w3.org/2000/svg">
<path d="M14.5833 7.29167L17.5 4.375M11.6667 23.3333L23.3333 11.6667M17.5 30.625L20.4167 27.7083M24.0625 27.7083C25.0294 27.7083 25.9568 27.3242 26.6405 26.6405C27.3242 25.9568 27.7083 25.0294 27.7083 24.0625C27.7083 23.0956 27.3242 22.1682 26.6405 21.4845C25.9568 20.8008 25.0294 20.4167 24.0625 20.4167C23.0956 20.4167 22.1682 20.8008 21.4845 21.4845C20.8008 22.1682 20.4167 23.0956 20.4167 24.0625C20.4167 25.0294 20.8008 25.9568 21.4845 26.6405C22.1682 27.3242 23.0956 27.7083 24.0625 27.7083ZM10.9375 14.5833C11.9044 14.5833 12.8318 14.1992 13.5155 13.5155C14.1992 12.8318 14.5833 11.9044 14.5833 10.9375C14.5833 9.97057 14.1992 9.04323 13.5155 8.35951C12.8318 7.67578 11.9044 7.29167 10.9375 7.29167C9.97057 7.29167 9.04323 7.67578 8.35951 8.35951C7.67578 9.04323 7.29167 9.97057 7.29167 10.9375C7.29167 11.9044 7.67578 12.8318 8.35951 13.5155C9.04323 14.1992 9.97057 14.5833 10.9375 14.5833ZM8.02083 30.625C8.98777 30.625 9.9151 30.2409 10.5988 29.5572C11.2826 28.8734 11.6667 27.9461 11.6667 26.9792C11.6667 26.0122 11.2826 25.0849 10.5988 24.4012C9.9151 23.7174 8.98777 23.3333 8.02083 23.3333C7.0539 23.3333 6.12657 23.7174 5.44284 24.4012C4.75911 25.0849 4.375 26.0122 4.375 26.9792C4.375 27.9461 4.75911 28.8734 5.44284 29.5572C6.12657 30.2409 7.0539 30.625 8.02083 30.625ZM26.9792 11.6667C27.9461 11.6667 28.8734 11.2826 29.5572 10.5988C30.2409 9.9151 30.625 8.98777 30.625 8.02083C30.625 7.0539 30.2409 6.12657 29.5572 5.44284C28.8734 4.75911 27.9461 4.375 26.9792 4.375C26.0122 4.375 25.0849 4.75911 24.4012 5.44284C23.7174 6.12657 23.3333 7.0539 23.3333 8.02083C23.3333 8.98777 23.7174 9.9151 24.4012 10.5988C25.0849 11.2826 26.0122 11.6667 26.9792 11.6667Z" stroke="#FFD231" stroke-width="2" stroke-linecap="round" stroke-linejoin="round"/>
</svg>
