<svg width="54" height="54" viewBox="0 0 54 54" fill="none" xmlns="http://www.w3.org/2000/svg">
<rect width="54" height="54" rx="27" fill="#222326"/>
<path d="M37.46 21C36.69 21.35 35.86 21.58 35 21.69C35.88 21.16 36.56 20.32 36.88 19.31C36.05 19.81 35.13 20.16 34.16 20.36C33.37 19.5 32.26 19 31 19C28.65 19 26.73 20.92 26.73 23.29C26.73 23.63 26.77 23.96 26.84 24.27C23.28 24.09 20.11 22.38 18 19.79C17.63 20.42 17.42 21.16 17.42 21.94C17.42 23.43 18.17 24.75 19.33 25.5C18.62 25.5 17.96 25.3 17.38 25V25.03C17.38 27.11 18.86 28.85 20.82 29.24C20.1908 29.4129 19.53 29.4369 18.89 29.31C19.1616 30.1625 19.6935 30.9084 20.411 31.4429C21.1285 31.9775 21.9954 32.2737 22.89 32.29C21.3736 33.4905 19.494 34.1394 17.56 34.13C17.22 34.13 16.88 34.11 16.54 34.07C18.44 35.29 20.7 36 23.12 36C31 36 35.33 29.46 35.33 23.79C35.33 23.6 35.33 23.42 35.32 23.23C36.16 22.63 36.88 21.87 37.46 21Z" fill="white"/>
</svg>
