<svg width="1920" height="2075" viewBox="0 0 1920 2075" fill="none" xmlns="http://www.w3.org/2000/svg">
<g filter="url(#filter0_d_379_2)">
<path fill-rule="evenodd" clip-rule="evenodd" d="M144.125 658.679C152.587 651.579 165.202 652.683 172.302 661.145L258.565 763.948L186.822 799.614C185.802 800.121 185.157 801.161 185.157 802.3V904.01L103.488 944.61C102.469 945.117 101.824 946.157 101.824 947.296V1050.86C101.824 1052 102.469 1053.04 103.488 1053.55L185.19 1094.17C185.168 1094.31 185.157 1094.46 185.157 1094.61V1196.32L103.488 1236.92C102.469 1237.43 101.824 1238.47 101.824 1239.61V1343.18C101.824 1344.32 102.469 1345.36 103.488 1345.86L185.19 1386.48C185.185 1386.52 185.18 1386.55 185.176 1386.59C185.174 1386.61 185.172 1386.63 185.17 1386.65C185.161 1386.74 185.157 1386.83 185.157 1386.92V1488.63L103.488 1529.23C102.469 1529.74 101.824 1530.78 101.824 1531.92V1635.49C101.824 1636.63 102.469 1637.67 103.488 1638.17L185.19 1678.79C185.182 1678.84 185.175 1678.9 185.17 1678.95C185.162 1679.05 185.157 1679.14 185.157 1679.24V1780.95L103.488 1821.55C102.469 1822.05 101.824 1823.09 101.824 1824.23V1927.8C101.824 1928.94 102.469 1929.98 103.488 1930.49L186.822 1971.91C187.663 1972.33 188.651 1972.33 189.493 1971.91L271.49 1931.15L343.202 1966.8L229.522 2062.19C221.061 2069.29 208.445 2068.19 201.345 2059.72L-499.32 1224.7C-506.42 1216.24 -505.317 1203.63 -496.855 1196.53L144.125 658.679ZM435.157 1889.64L348.216 1962.59L274.49 1925.94V1826.09L354.824 1786.15L435.157 1826.09V1889.64ZM441.157 1884.61L546.707 1796.04L520.49 1783.01L440.715 1822.66C440.999 1823.13 441.157 1823.67 441.157 1824.23V1884.61ZM551.722 1791.83L684.157 1680.7V1677.95L603.824 1638.01L523.49 1677.95V1777.8L551.722 1791.83ZM867.953 1490.19L858.824 1479.31V1485.65L867.953 1490.19ZM754.397 1354.86L852.824 1472.16V1485.65L772.49 1525.59L692.157 1485.65V1385.8L754.397 1354.86ZM750.43 1350.13L644.603 1224.01L608.159 1242.13C608.05 1242.18 607.938 1242.23 607.824 1242.27V1339.49L689.493 1380.09C689.6 1380.15 689.702 1380.21 689.8 1380.27L750.43 1350.13ZM769.49 1609.1L706.488 1661.97L689.157 1670.58L608.824 1630.65V1530.8L689.157 1490.86L769.49 1530.8V1609.1ZM875.904 1500.84C879.472 1508.8 877.512 1518.46 870.503 1524.34L775.49 1604.07V1530.8L855.824 1490.86L875.904 1500.84ZM441.157 1532.45V1633.3L520.49 1672.74L600.824 1632.8V1532.95L520.49 1493.01L441.157 1532.45ZM357.824 1679.24V1778.29L437.157 1817.73L517.49 1777.8V1677.95L438.491 1638.67L357.791 1678.79C357.813 1678.94 357.824 1679.09 357.824 1679.24ZM357.824 1386.92L357.824 1386.9V1386.46L439.493 1345.86C439.513 1345.85 439.534 1345.84 439.554 1345.83C439.595 1345.81 439.636 1345.79 439.676 1345.76C439.767 1345.71 439.855 1345.65 439.939 1345.59L518.49 1384.64V1484.49L438.157 1524.43L357.824 1484.49L357.824 1386.92ZM271.49 1348.85L351.824 1388.78L351.824 1486.35L351.824 1486.37V1488.63L271.49 1528.57L191.157 1488.63V1388.78L271.49 1348.85ZM441.157 1242.27C441.271 1242.23 441.383 1242.18 441.493 1242.13L523.49 1201.37L601.824 1240.31V1339.49L521.49 1379.43L441.157 1339.49L441.157 1242.27ZM607.172 1235.92L640.636 1219.28L534.221 1092.46L526.49 1096.31V1195.49L606.159 1235.1C606.561 1235.3 606.904 1235.58 607.172 1235.92ZM520.49 1193.53V1096.31L440.157 1056.37L359.824 1096.31V1196.16L437.49 1234.77L520.155 1193.67C520.265 1193.62 520.377 1193.57 520.49 1193.53ZM435.157 1241.47L354.824 1201.53L274.49 1241.47V1341.32L353.042 1380.37C353.103 1380.32 353.167 1380.28 353.232 1380.24C353.256 1380.22 353.28 1380.21 353.304 1380.19C353.337 1380.18 353.37 1380.16 353.404 1380.14C353.432 1380.12 353.46 1380.11 353.488 1380.09L435.157 1339.49L435.157 1241.47ZM443.157 1051.16V983.937L530.253 1087.73L523.49 1091.1L443.157 1051.16ZM351.824 875.09L262.532 768.676L191.157 804.159V904.01L271.49 943.946L351.824 904.01V875.09ZM389.163 919.589L357.824 882.241V904.01L389.163 919.589ZM354.824 909.219L398.809 931.085L435.157 974.403V1049.01L354.824 1088.94L274.49 1049.01V949.155L354.824 909.219ZM188.157 909.219L107.824 949.155V1049.01L188.157 1088.94L268.49 1049.01V949.155L188.157 909.219ZM107.824 1241.47L188.157 1201.53L268.49 1241.47V1341.32L188.157 1381.25L107.824 1341.32V1241.47ZM351.824 1096.47V1196.32L271.49 1236.26L191.157 1196.32V1096.47L271.49 1056.53L351.824 1096.47ZM524.49 1484.49V1384.64L604.824 1344.7L685.157 1384.64V1484.49L604.824 1524.43L524.49 1484.49ZM188.157 1493.84L107.824 1533.78V1633.63L188.157 1673.57L268.49 1633.63V1533.78L188.157 1493.84ZM274.49 1533.78V1633.63L353.49 1672.9L434.157 1632.8V1533.28L354.824 1493.84L274.49 1533.78ZM271.49 1641.16L350.824 1680.6V1779.66C350.824 1780.22 350.982 1780.76 351.266 1781.22L271.49 1820.88L191.157 1780.95V1681.09L271.49 1641.16ZM107.824 1826.09L188.157 1786.15L268.49 1826.09V1925.94L188.157 1965.88L107.824 1925.94V1826.09Z" fill="#FAD32F"/>
</g>
<g filter="url(#filter1_d_379_2)">
<path fill-rule="evenodd" clip-rule="evenodd" d="M1816.85 -241.679C1809.75 -250.141 1797.14 -251.244 1788.68 -244.144L1371 106.328V162.028L1450.17 201.384L1531.33 161.034V59.324C1531.33 58.1852 1531.98 57.1446 1533 56.6377L1616.33 15.2102C1617.17 14.7921 1618.16 14.7921 1619 15.2102L1700.67 55.808L1782.33 15.2102C1783.17 14.7921 1784.16 14.7921 1785 15.2102L1868.34 56.6377C1869.36 57.1446 1870 58.1852 1870 59.324V161.034L1951.67 201.634C1952.69 202.141 1953.33 203.181 1953.33 204.32V307.889C1953.33 309.027 1952.69 310.068 1951.67 310.575L1870 351.175V451.357L1951.67 491.957C1952.69 492.464 1953.33 493.505 1953.33 494.643V598.212C1953.33 599.351 1952.69 600.391 1951.67 600.898L1870 641.498V741.68L1951.67 782.28C1952.69 782.787 1953.33 783.828 1953.33 784.967V887.173L2034.67 927.608C2035.69 928.115 2036.33 929.155 2036.33 930.294V983.311L2495.41 598.103C2503.87 591.003 2504.97 578.388 2497.87 569.926L1816.85 -241.679ZM2030.33 988.345V932.153L1950 892.217L1869.67 932.153V1032L1937.89 1065.92L2030.33 988.345ZM1932.87 1070.13L1866.67 1037.21L1810.75 1065.01L1850.87 1112.82C1857.97 1121.28 1870.59 1122.39 1879.05 1115.29L1932.87 1070.13ZM1806.79 1060.28L1863.67 1032V932.153L1783.33 892.217L1703 932.153V936.593L1806.79 1060.28ZM1700.33 746.89L1620.67 786.494V838.472L1688.63 919.47L1701 925.618L1780.67 886.014V786.826L1700.33 746.89ZM1614 830.527L1549.18 753.275L1614 785.5V830.527ZM1617.67 780.622L1539.53 741.779L1537.33 739.159V641.498L1617.33 601.728L1697.33 641.498V741.018L1617.67 780.622ZM1867 926.612L1787.33 887.008V786.494L1867 746.89L1947.33 786.826V886.676L1867 926.612ZM1864 741.68L1785 780.954L1704 740.686V641.498L1783.67 601.894L1864 641.83V741.68ZM1780.67 596.353L1701.33 635.792L1620.67 595.69V496.502L1700.67 456.732L1780.67 496.502V596.353ZM1614 496.171V596.022L1533.67 635.958L1454.33 596.519V496.336L1534.33 456.566L1614 496.171ZM1452.17 602.142L1531.33 641.498V732.008L1431.14 612.597L1452.17 602.142ZM1448 597.513V497.331L1368 457.56L1320.75 481.048L1427.17 607.869L1448 597.513ZM1371 452.351L1450.17 491.707L1531.33 451.357V351.175L1452.17 311.819L1371 352.169V452.351ZM1210.37 349.499L1316.79 476.32L1365 452.351V352.501L1284.67 312.565L1210.37 349.499ZM1784 491.127L1704 451.357V351.175L1783.67 311.57L1864 351.506V451.357L1784 491.127ZM1787.33 596.685V496.171L1867 456.566L1947.33 496.502V596.353L1867 636.289L1787.33 596.685ZM1617.67 311.57L1537.33 351.506V451.357L1617.33 491.127L1697.33 451.357V351.175L1617.67 311.57ZM1206.21 344.537L1281.67 307.024V207.173L1262.29 197.543L1172.32 273.04C1163.86 280.14 1162.76 292.755 1169.86 301.216L1206.21 344.537ZM1267.31 193.335L1284.67 201.964L1365 162.028V111.363L1267.31 193.335ZM1448 207.007V307.19L1368 346.96L1287.67 307.024V207.173L1368 167.237L1448 207.007ZM1454.33 306.195L1534.33 345.966L1614 306.361V205.847L1534.33 166.243L1454.33 206.013V306.195ZM1704 161.034L1784 200.804L1864 161.034V61.1829L1783.67 21.2469L1704 60.8515V161.034ZM1787.33 205.847V306.361L1867 345.966L1947.33 306.03V206.179L1867 166.243L1787.33 205.847ZM1617.67 21.2469L1697.33 60.8515V161.034L1617.33 200.804L1537.33 161.034V61.1829L1617.67 21.2469ZM1780.67 206.179L1700.67 166.409L1620.67 206.179V306.03L1700.67 345.8L1780.67 306.03V206.179Z" fill="#FAD32F"/>
</g>
<defs>
<filter id="filter0_d_379_2" x="-508" y="654" width="1389.65" height="1420.87" filterUnits="userSpaceOnUse" color-interpolation-filters="sRGB">
<feFlood flood-opacity="0" result="BackgroundImageFix"/>
<feColorMatrix in="SourceAlpha" type="matrix" values="0 0 0 0 0 0 0 0 0 0 0 0 0 0 0 0 0 0 127 0" result="hardAlpha"/>
<feOffset dy="4"/>
<feGaussianBlur stdDeviation="2"/>
<feComposite in2="hardAlpha" operator="out"/>
<feColorMatrix type="matrix" values="0 0 0 0 0 0 0 0 0 0 0 0 0 0 0 0 0 0 0.25 0"/>
<feBlend mode="normal" in2="BackgroundImageFix" result="effect1_dropShadow_379_2"/>
<feBlend mode="normal" in="SourceGraphic" in2="effect1_dropShadow_379_2" result="shape"/>
</filter>
<filter id="filter1_d_379_2" x="1161.18" y="-248.824" width="1345.37" height="1376.79" filterUnits="userSpaceOnUse" color-interpolation-filters="sRGB">
<feFlood flood-opacity="0" result="BackgroundImageFix"/>
<feColorMatrix in="SourceAlpha" type="matrix" values="0 0 0 0 0 0 0 0 0 0 0 0 0 0 0 0 0 0 127 0" result="hardAlpha"/>
<feOffset dy="4"/>
<feGaussianBlur stdDeviation="2"/>
<feComposite in2="hardAlpha" operator="out"/>
<feColorMatrix type="matrix" values="0 0 0 0 0 0 0 0 0 0 0 0 0 0 0 0 0 0 0.25 0"/>
<feBlend mode="normal" in2="BackgroundImageFix" result="effect1_dropShadow_379_2"/>
<feBlend mode="normal" in="SourceGraphic" in2="effect1_dropShadow_379_2" result="shape"/>
</filter>
</defs>
</svg>
