<svg width="35" height="35" viewBox="0 0 35 35" fill="none" xmlns="http://www.w3.org/2000/svg">
<path d="M17.5 17.4999C19.0471 17.4999 20.5308 16.8853 21.6247 15.7914C22.7187 14.6974 23.3333 13.2137 23.3333 11.6666C23.3333 10.1195 22.7187 8.63576 21.6247 7.5418C20.5308 6.44783 19.0471 5.83325 17.5 5.83325C15.9529 5.83325 14.4691 6.44783 13.3752 7.5418C12.2812 8.63576 11.6666 10.1195 11.6666 11.6666C11.6666 13.2137 12.2812 14.6974 13.3752 15.7914C14.4691 16.8853 15.9529 17.4999 17.5 17.4999Z" stroke="#FFD231" stroke-width="1.5" stroke-linecap="round" stroke-linejoin="round"/>
<path d="M32.0833 25.1998C32.0832 26.0773 31.7362 26.9192 31.1179 27.5419C29.6946 28.9769 28.3135 30.4731 26.8362 31.8556C26.6712 32.0063 26.4546 32.0878 26.2312 32.0832C26.0078 32.0786 25.7947 31.9882 25.636 31.8308L21.3806 27.5433C20.7617 26.9204 20.4143 26.0779 20.4143 25.1998C20.4143 24.3217 20.7617 23.4792 21.3806 22.8563C21.6893 22.5451 22.0565 22.2981 22.4611 22.1296C22.8657 21.961 23.2997 21.8743 23.738 21.8743C24.1763 21.8743 24.6103 21.961 25.0149 22.1296C25.4195 22.2981 25.7867 22.5451 26.0954 22.8563L26.25 23.0123L26.4046 22.8563C26.8682 22.3887 27.4603 22.0694 28.1057 21.9392C28.7512 21.8089 29.4208 21.8735 30.0294 22.1246C30.6381 22.3758 31.1584 22.8023 31.5241 23.3499C31.8898 23.8974 32.0844 24.5413 32.0833 25.1998Z" stroke="#FFD231" stroke-width="1.5" stroke-linejoin="round"/>
<path d="M7.29163 29.1666V27.7082C7.29127 25.9859 7.7267 24.2915 8.55737 22.7827C9.38804 21.2739 10.5869 19.9999 12.0425 19.0791C13.498 18.1583 15.1629 17.6208 16.882 17.5165C18.6012 17.4123 20.3188 17.7447 21.875 18.4828" stroke="#FFD231" stroke-width="1.5" stroke-linecap="round" stroke-linejoin="round"/>
</svg>
