<svg width="24" height="24" viewBox="0 0 24 24" fill="none" xmlns="http://www.w3.org/2000/svg">
<g clip-path="url(#clip0_70_486)">
<g clip-path="url(#clip1_70_486)">
<path d="M6.12686 3.02915C6.13151 3.62192 5.90265 4.19271 5.48979 4.61808C5.07692 5.04346 4.51322 5.28925 3.92057 5.30229C3.32916 5.28081 2.76862 5.03291 2.3548 4.60984C1.94099 4.18678 1.70555 3.62089 1.69714 3.02915C1.7227 2.45247 1.9667 1.90711 2.37962 1.50374C2.79254 1.10037 3.34345 0.869206 3.92057 0.857147C4.49599 0.869436 5.04495 1.10118 5.4551 1.50496C5.86524 1.90873 6.10556 2.45399 6.12686 3.02915ZM1.93543 9.34115C1.93543 8.03486 2.76686 8.23886 3.92057 8.23886C5.07429 8.23886 5.88857 8.03486 5.88857 9.34115V22.068C5.88857 23.3914 5.05714 23.1206 3.92057 23.1206C2.784 23.1206 1.93543 23.3914 1.93543 22.068V9.34115ZM9.31714 9.34286C9.31714 8.61258 9.588 8.34 10.0114 8.256C10.4366 8.17029 11.8954 8.256 12.4046 8.256C12.9137 8.256 13.1177 9.08743 13.1006 9.71486C13.536 9.13052 14.1141 8.66766 14.7795 8.37052C15.4449 8.07339 16.1754 7.95191 16.9011 8.01772C17.6139 7.9742 18.3277 8.08108 18.9965 8.33142C19.6652 8.58176 20.2738 8.96995 20.7827 9.4708C21.2916 9.97164 21.6895 10.5739 21.9505 11.2385C22.2115 11.9032 22.3298 12.6153 22.2977 13.3286V22.0166C22.2977 23.34 21.4834 23.0691 20.328 23.0691C19.1743 23.0691 18.36 23.34 18.36 22.0166V15.2297C18.3899 14.8805 18.3443 14.5289 18.2262 14.1988C18.1082 13.8688 17.9205 13.568 17.6759 13.3169C17.4313 13.0658 17.1356 12.8703 16.8087 12.7436C16.4819 12.617 16.1316 12.5622 15.7817 12.5829C15.4332 12.5737 15.0866 12.6387 14.7651 12.7736C14.4436 12.9085 14.1544 13.1102 13.9168 13.3654C13.6791 13.6205 13.4984 13.9233 13.3867 14.2536C13.2749 14.5839 13.2347 14.9341 13.2686 15.2811V22.068C13.2686 23.3914 12.4371 23.1206 11.2834 23.1206C10.1297 23.1206 9.31543 23.3914 9.31543 22.068V9.34115L9.31714 9.34286Z" stroke="black" stroke-width="1.71429" stroke-linecap="round" stroke-linejoin="round"/>
</g>
</g>
<defs>
<clipPath id="clip0_70_486">
<rect width="24" height="24" fill="white"/>
</clipPath>
<clipPath id="clip1_70_486">
<rect width="24" height="24" fill="white"/>
</clipPath>
</defs>
</svg>
