<svg width="48" height="48" viewBox="0 0 48 48" fill="none" xmlns="http://www.w3.org/2000/svg">
<path d="M28.3116 23.6446C28.0708 23.6446 27.8472 23.5784 27.6486 23.4719V23.4748C27.6486 23.8536 27.5014 24.2094 27.2342 24.4758C26.967 24.743 26.6115 24.8903 26.2331 24.8903C25.9888 24.8903 25.7624 24.8224 25.5617 24.7131C25.5414 25.0597 25.4029 25.3836 25.1557 25.631C24.8886 25.8982 24.5331 26.0454 24.1544 26.0454C23.4021 26.0454 22.7912 25.4541 22.7472 24.7129C22.5144 24.8387 22.2513 24.9046 21.9798 24.8872C21.2398 24.8387 20.6602 24.1993 20.6602 23.4312V17.0645L19.9353 18.3205C19.6592 18.8009 19.1423 19.0991 18.5858 19.0991C18.3146 19.0991 18.0467 19.028 17.8095 18.892C17.514 18.7208 17.3027 18.4458 17.2148 18.1169C17.1265 17.7878 17.1722 17.4436 17.343 17.1486C17.3432 17.1486 19.715 13.0414 19.8597 12.7891C19.8769 12.7512 19.9259 12.6411 19.9676 12.5474C20.0074 12.4578 20.0416 12.366 20.0743 12.2736C20.7896 10.2543 22.5606 8.99998 24.6965 8.99998C27.4702 8.99998 29.7268 11.4469 29.7268 14.4546L29.727 22.2289C29.727 22.6073 29.58 22.9628 29.313 23.2302C29.0459 23.4974 28.6904 23.6447 28.3115 23.6447L28.3116 23.6446ZM24.6965 9.75212C22.8612 9.75212 21.3984 10.7888 20.7833 12.5251C20.7439 12.6354 20.7029 12.7457 20.6551 12.8531C20.5163 13.1643 20.5163 13.1643 20.4772 13.2091L20.472 13.2046C20.2784 13.57 19.703 14.5663 17.9942 17.525C17.924 17.6463 17.9054 17.7872 17.9412 17.922C17.9775 18.0567 18.0645 18.1703 18.1849 18.2398C18.5585 18.4544 19.0702 18.3159 19.2832 17.9448L20.7107 15.4734C20.796 15.3261 20.9684 15.2538 21.1338 15.2986C21.2983 15.3426 21.4125 15.4918 21.4125 15.6619V23.4314C21.4125 23.798 21.6891 24.1144 22.0291 24.1368C22.2251 24.1471 22.408 24.0814 22.5453 23.9443C22.6702 23.8194 22.739 23.6531 22.739 23.4752V18.3938C22.739 18.186 22.9074 18.0176 23.1152 18.0176C23.323 18.0176 23.4915 18.1858 23.4915 18.3938L23.4912 24.6302C23.4912 24.9958 23.7888 25.2934 24.1544 25.2934C24.3321 25.2934 24.4989 25.2246 24.624 25.0997C24.7489 24.9746 24.8177 24.8078 24.8177 24.6302V18.3938C24.8177 18.186 24.9859 18.0176 25.1939 18.0176C25.4017 18.0176 25.5702 18.1858 25.5702 18.3938L25.5699 23.4168V23.4752C25.5699 23.8406 25.8675 24.1381 26.2334 24.1381C26.4108 24.1381 26.5771 24.0691 26.7029 23.9438C26.8278 23.8191 26.8966 23.6528 26.8966 23.4749V18.3936C26.8966 18.1858 27.0648 18.0173 27.2728 18.0173C27.4806 18.0173 27.6491 18.1855 27.6491 18.3936L27.6486 22.2291C27.6486 22.595 27.9462 22.8925 28.3116 22.8925C28.4894 22.8925 28.6558 22.8235 28.7806 22.6989C28.906 22.5736 28.9745 22.4067 28.9745 22.2291L28.9748 14.4548C28.9748 11.862 27.0556 9.7522 24.6965 9.7522L24.6965 9.75212Z" fill="#FAD32F"/>
<path d="M13.529 29.048L18.9888 25.7727C19.647 25.3774 20.494 25.5454 20.9162 26.1553C21.0703 26.3775 21.149 26.6364 21.1612 26.9001C21.3648 26.7938 21.5862 26.7361 21.8117 26.7361C21.9271 26.7361 22.043 26.7505 22.1575 26.779C22.5244 26.8706 22.8335 27.0999 23.0279 27.424C23.2225 27.7487 23.2792 28.1291 23.1876 28.4955C23.103 28.8346 22.8969 29.1199 22.6101 29.3157C22.8106 29.4339 22.9836 29.5953 23.1065 29.8008C23.3012 30.1254 23.3579 30.5057 23.2665 30.8725C23.1749 31.2389 22.9456 31.548 22.621 31.7429L22.6191 31.744C22.8161 31.8621 22.9859 32.0218 23.1075 32.2242C23.3023 32.5488 23.3591 32.9293 23.2675 33.2961C23.1756 33.6627 22.9463 33.9718 22.6222 34.1664L15.9558 38.1657C14.7116 38.9119 13.2732 39.1694 11.9063 38.8902C10.5271 38.6084 9.38491 37.8157 8.6904 36.6579C7.59132 34.8261 7.75603 32.6619 9.11943 31.0101C9.18186 30.9347 9.24335 30.8579 9.29919 30.7783C9.35833 30.6942 9.42736 30.5952 9.45091 30.5613C9.59203 30.3092 11.8948 26.1603 11.8946 26.1608C12.1271 25.7412 12.5629 25.5037 13.0125 25.5039C13.2221 25.5039 13.4349 25.5555 13.6312 25.6644C13.8682 25.7968 14.0672 25.9898 14.2065 26.2223C14.4927 26.6994 14.5029 27.2964 14.2333 27.7796L13.529 29.048ZM13.5618 26.6091C13.4888 26.4873 13.3884 26.3902 13.2656 26.3214C13.0119 26.181 12.6924 26.2724 12.5527 26.5252C10.905 29.4937 10.3433 30.5054 10.1265 30.8654L10.1315 30.8666C10.1133 30.9269 10.1133 30.9269 9.91496 31.2103C9.84758 31.3062 9.77431 31.3983 9.69962 31.489C8.52726 32.9094 8.39113 34.6969 9.33515 36.2709C9.91991 37.2458 10.8863 37.9142 12.0565 38.1531C13.2395 38.3937 14.4862 38.1699 15.5684 37.5206L22.2354 33.5211C22.3876 33.4299 22.495 33.285 22.5379 33.1133C22.5808 32.9417 22.5542 32.7634 22.4627 32.6112C22.2747 32.2979 21.8664 32.1949 21.5531 32.3836L18.2642 34.3568C18.0861 34.4637 17.8547 34.4062 17.748 34.2279C17.641 34.0498 17.6987 33.8187 17.8768 33.7117L21.166 31.7386L22.2342 31.0977C22.3864 31.0063 22.4941 30.8614 22.537 30.6901C22.5798 30.5184 22.5532 30.3398 22.4618 30.1878C22.2736 29.8743 21.8653 29.7723 21.5522 29.9603L17.1948 32.5742C17.0162 32.6814 16.7856 32.6235 16.6786 32.4454C16.5716 32.2673 16.6296 32.0361 16.8075 31.9292L22.1553 28.7211C22.3075 28.6296 22.4149 28.485 22.4578 28.3132C22.5007 28.1417 22.4741 27.9634 22.3829 27.8112C22.2917 27.6592 22.1468 27.5518 21.9751 27.5089C21.8024 27.466 21.6247 27.4927 21.473 27.5836L20.483 28.1775C20.4828 28.1775 20.4828 28.1778 20.4826 28.1778H20.4823L16.1252 30.7917C15.9466 30.8992 15.7157 30.8412 15.609 30.6629C15.502 30.4848 15.56 30.2536 15.7379 30.1467L20.0952 27.5327C20.2474 27.4413 20.3551 27.2964 20.398 27.1251C20.4451 26.9371 20.4093 26.7449 20.2976 26.5837C20.104 26.3036 19.6898 26.2291 19.3757 26.4179L12.7136 30.4146C12.5677 30.5017 12.3809 30.4805 12.2586 30.3625C12.1361 30.2442 12.1085 30.0583 12.191 29.9097L13.5763 27.4137C13.7153 27.1642 13.7099 26.8561 13.5617 26.6092L13.5618 26.6091Z" fill="#FAD32F"/>
<path d="M39.618 36.6576C38.9237 37.8156 37.7818 38.6081 36.4024 38.8899C35.0352 39.1686 33.5974 38.9116 32.3529 38.1655L25.6859 34.166C25.3615 33.9714 25.132 33.6623 25.0401 33.2952C24.949 32.9288 25.006 32.5483 25.2003 32.2241C25.3217 32.0215 25.4918 31.8618 25.689 31.7437L25.6871 31.7426C25.3627 31.548 25.1332 31.2389 25.0418 30.8723C24.9499 30.5057 25.0069 30.1249 25.2015 29.8003C25.3269 29.5918 25.4986 29.4288 25.6946 29.3131C25.41 29.1173 25.2051 28.8329 25.1207 28.4956C25.0288 28.1287 25.0859 27.7482 25.2805 27.424C25.4748 27.0996 25.7842 26.8704 26.1508 26.7787C26.2653 26.75 26.3814 26.7359 26.4964 26.7359C26.7221 26.7361 26.9436 26.7933 27.1471 26.8998C27.1596 26.6362 27.2381 26.3773 27.3921 26.1551C27.8146 25.5456 28.6608 25.3769 29.32 25.7725L34.7796 29.0473L34.0758 27.7798C33.8059 27.2958 33.8157 26.6988 34.102 26.2215C34.2415 25.9892 34.4408 25.7963 34.679 25.6627C34.8748 25.5543 35.0868 25.5029 35.296 25.5029C35.7453 25.5032 36.1816 25.7402 36.4139 26.1598C37.2234 27.6184 38.751 30.3692 38.8584 30.5613C38.8813 30.5945 38.9503 30.6934 39.0094 30.7776C39.0658 30.8574 39.1265 30.9338 39.1894 31.0096C40.5526 32.6621 40.7171 34.8261 39.618 36.6576L39.618 36.6576ZM38.609 31.4891C38.5341 31.3984 38.4606 31.3058 38.3937 31.2104C38.1901 30.9215 38.1849 30.914 38.1696 30.8384C37.9317 30.4447 37.3512 29.3996 35.7555 26.5248C35.6155 26.2725 35.2975 26.1803 35.0442 26.3203C34.9196 26.39 34.8194 26.4873 34.7464 26.6091C34.5984 26.8558 34.5928 27.164 34.7325 27.4142L36.1173 29.9094C36.2 30.0583 36.1725 30.244 36.0502 30.3622C35.9282 30.4807 35.7416 30.5015 35.595 30.4143L28.9328 26.4176C28.6188 26.2293 28.2049 26.3031 28.0107 26.5834C27.899 26.7446 27.8635 26.9368 27.9101 27.1246C27.953 27.2961 28.0607 27.4408 28.2131 27.5322C28.2136 27.5324 28.2138 27.5329 28.2143 27.5331L32.5703 30.1464C32.7484 30.2533 32.8061 30.4842 32.6991 30.6626C32.5922 30.8405 32.3615 30.8986 32.1829 30.7914L26.8351 27.5833C26.6834 27.4924 26.5048 27.4655 26.3333 27.5087C26.1613 27.5515 26.0166 27.659 25.9255 27.8114C25.834 27.9634 25.8077 28.1417 25.8501 28.3132C25.8929 28.4847 26.0006 28.6296 26.1528 28.721L27.1934 29.3452L31.5004 31.9292C31.6785 32.0362 31.7362 32.2671 31.6293 32.4454C31.5223 32.6233 31.2917 32.6812 31.1131 32.5743L26.7562 29.9603C26.4428 29.7718 26.0348 29.8741 25.8463 30.1879C25.7549 30.3401 25.7285 30.5184 25.7709 30.6899C25.8138 30.8615 25.9215 31.0061 26.0739 31.0978L27.1421 31.7386L30.4308 33.7117C30.6089 33.8187 30.6666 34.0496 30.5597 34.2279C30.4527 34.4058 30.222 34.4642 30.0435 34.3568L26.7548 32.3837C26.603 32.2927 26.4252 32.2659 26.2527 32.309C26.0812 32.3519 25.9361 32.4593 25.8449 32.6112C25.7537 32.7634 25.7271 32.942 25.7695 33.1133C25.8124 33.2848 25.92 33.4295 26.0725 33.5211L32.7395 37.5206C33.8214 38.1697 35.0691 38.3944 36.2513 38.1532C37.4213 37.9143 38.3877 37.2459 38.9725 36.271C39.9175 34.6967 39.7815 32.909 38.6094 31.4891L38.609 31.4891Z" fill="#FAD32F"/>
</svg>
