<svg width="24" height="24" viewBox="0 0 24 24" fill="none" xmlns="http://www.w3.org/2000/svg">
<g clip-path="url(#clip0_70_495)">
<path fill-rule="evenodd" clip-rule="evenodd" d="M17.817 6.989C17.464 6.481 16.52 5.767 14.991 6.075C14.099 6.254 13.566 6.695 13.227 7.277C12.866 7.897 12.691 8.74 12.691 9.721C12.691 9.98621 12.5857 10.2406 12.3982 10.4281C12.2106 10.6156 11.9563 10.721 11.691 10.721C9.32504 10.721 7.07304 10.018 5.17804 8.117C5.03497 8.88829 4.97862 9.67317 5.01004 10.457C5.06304 11.543 5.32204 12.632 5.93704 13.565C6.54204 14.482 7.53704 15.322 9.20104 15.85C9.3641 15.9017 9.51115 15.9944 9.62816 16.1192C9.74516 16.244 9.8282 16.3967 9.86934 16.5627C9.91047 16.7288 9.90832 16.9026 9.8631 17.0676C9.81788 17.2325 9.73109 17.3831 9.61104 17.505C9.07804 18.0517 8.47396 18.5243 7.81504 18.91C8.87504 19.02 9.89704 19.028 10.845 18.942C12.765 18.768 14.294 18.219 15.25 17.442C17.263 15.81 18.34 13.376 18.14 9.298C18.106 8.628 18.753 7.905 19.065 7.356C18.594 7.444 18.122 7.428 17.817 6.989ZM4.59404 4.984C4.7751 4.96295 4.95846 4.9918 5.12431 5.06741C5.29016 5.14302 5.43218 5.26252 5.53504 5.413C7.01104 7.572 8.78304 8.47 10.75 8.674C10.846 7.833 11.073 7.002 11.5 6.27C12.126 5.196 13.144 4.406 14.598 4.114C16.608 3.71 18.138 4.438 19.025 5.329L20.817 4.994C21.0046 4.95886 21.1982 4.9781 21.3752 5.04944C21.5521 5.12079 21.7049 5.24126 21.8157 5.39664C21.9264 5.55203 21.9903 5.73583 21.9999 5.92637C22.0096 6.11691 21.9645 6.30624 21.87 6.472L20.15 9.494C20.307 13.855 19.095 16.899 16.511 18.996C15.141 20.108 13.179 20.739 11.026 20.934C8.85604 21.13 6.40304 20.893 3.96504 20.181C3.75674 20.1202 3.57384 19.9934 3.44397 19.8195C3.31409 19.6457 3.24428 19.4343 3.24507 19.2174C3.24587 19.0004 3.31721 18.7895 3.44835 18.6167C3.57949 18.4438 3.7633 18.3182 3.97204 18.259C5.19804 17.91 6.13204 17.609 6.97504 17.082C5.77604 16.446 4.89304 15.614 4.26804 14.666C3.40004 13.348 3.07804 11.878 3.01404 10.553C2.95004 9.228 3.14104 8 3.34304 7.115C3.45804 6.61 3.59204 6.104 3.77704 5.62C3.8423 5.44939 3.95304 5.29991 4.09725 5.18779C4.24145 5.07567 4.41261 5.00519 4.59404 4.984Z" fill="black"/>
</g>
<defs>
<clipPath id="clip0_70_495">
<rect width="24" height="24" fill="white"/>
</clipPath>
</defs>
</svg>
