<svg width="45" height="45" viewBox="0 0 45 45" fill="none" xmlns="http://www.w3.org/2000/svg">
<path d="M37.9688 11.25H9.84375C9.47079 11.25 9.1131 11.1018 8.84938 10.8381C8.58566 10.5744 8.4375 10.2167 8.4375 9.84375C8.4375 9.47079 8.58566 9.1131 8.84938 8.84938C9.1131 8.58566 9.47079 8.4375 9.84375 8.4375H33.75C34.123 8.4375 34.4806 8.28934 34.7444 8.02562C35.0081 7.7619 35.1562 7.40421 35.1562 7.03125C35.1562 6.65829 35.0081 6.3006 34.7444 6.03688C34.4806 5.77316 34.123 5.625 33.75 5.625H9.84375C8.72487 5.625 7.65181 6.06947 6.86064 6.86064C6.06947 7.65181 5.625 8.72487 5.625 9.84375V32.3438C5.625 33.4626 6.06947 34.5357 6.86064 35.3269C7.65181 36.118 8.72487 36.5625 9.84375 36.5625H37.9688C38.7147 36.5625 39.43 36.2662 39.9575 35.7387C40.4849 35.2113 40.7812 34.4959 40.7812 33.75V14.0625C40.7812 13.3166 40.4849 12.6012 39.9575 12.0738C39.43 11.5463 38.7147 11.25 37.9688 11.25ZM37.9688 33.75H9.84375C9.47079 33.75 9.1131 33.6018 8.84938 33.3381C8.58566 33.0744 8.4375 32.7167 8.4375 32.3438V13.8217C8.88904 13.9817 9.36468 14.0632 9.84375 14.0625H37.9688V33.75ZM29.5312 23.2031C29.5312 22.7859 29.655 22.3781 29.8867 22.0312C30.1185 21.6843 30.448 21.414 30.8334 21.2543C31.2188 21.0947 31.643 21.0529 32.0521 21.1343C32.4613 21.2157 32.8372 21.4166 33.1322 21.7116C33.4272 22.0066 33.6281 22.3824 33.7095 22.7916C33.7909 23.2008 33.7491 23.6249 33.5894 24.0103C33.4298 24.3958 33.1594 24.7252 32.8125 24.957C32.4656 25.1888 32.0578 25.3125 31.6406 25.3125C31.0812 25.3125 30.5447 25.0903 30.1491 24.6947C29.7535 24.2991 29.5312 23.7626 29.5312 23.2031Z" fill="black"/>
</svg>
