<svg width="100" height="100" viewBox="0 0 100 100" fill="none" xmlns="http://www.w3.org/2000/svg">
<path d="M50.0002 70.8332C51.1807 70.8332 52.171 70.4333 52.971 69.6332C53.771 68.8332 54.1696 67.8444 54.1668 66.6666C54.1641 65.4888 53.7641 64.4999 52.9668 63.6999C52.1696 62.8999 51.1807 62.4999 50.0002 62.4999C48.8196 62.4999 47.8307 62.8999 47.0335 63.6999C46.2363 64.4999 45.8363 65.4888 45.8335 66.6666C45.8307 67.8444 46.2307 68.8346 47.0335 69.6374C47.8363 70.4402 48.8252 70.8388 50.0002 70.8332ZM45.8335 54.1666H54.1668V29.1666H45.8335V54.1666ZM50.0002 91.6666C44.2363 91.6666 38.8196 90.5721 33.7502 88.3832C28.6807 86.1944 24.271 83.2263 20.521 79.4791C16.771 75.7319 13.8029 71.3221 11.6168 66.2499C9.43072 61.1777 8.33628 55.761 8.3335 49.9999C8.33072 44.2388 9.42517 38.8221 11.6168 33.7499C13.8085 28.6777 16.7766 24.268 20.521 20.5208C24.2654 16.7735 28.6752 13.8055 33.7502 11.6166C38.8252 9.4277 44.2418 8.33325 50.0002 8.33325C55.7585 8.33325 61.1752 9.4277 66.2502 11.6166C71.3252 13.8055 75.7349 16.7735 79.4793 20.5208C83.2238 24.268 86.1932 28.6777 88.3877 33.7499C90.5821 38.8221 91.6752 44.2388 91.6668 49.9999C91.6585 55.761 90.5641 61.1777 88.3835 66.2499C86.2029 71.3221 83.2349 75.7319 79.4793 79.4791C75.7238 83.2263 71.3141 86.1957 66.2502 88.3874C61.1863 90.5791 55.7696 91.6721 50.0002 91.6666ZM50.0002 83.3333C59.3057 83.3333 67.1877 80.1041 73.646 73.6457C80.1043 67.1874 83.3335 59.3055 83.3335 49.9999C83.3335 40.6944 80.1043 32.8124 73.646 26.3541C67.1877 19.8958 59.3057 16.6666 50.0002 16.6666C40.6946 16.6666 32.8127 19.8958 26.3543 26.3541C19.896 32.8124 16.6668 40.6944 16.6668 49.9999C16.6668 59.3055 19.896 67.1874 26.3543 73.6457C32.8127 80.1041 40.6946 83.3333 50.0002 83.3333Z" fill="#FFD231"/>
</svg>
