<svg width="1920" height="968" viewBox="0 0 1920 968" fill="none" xmlns="http://www.w3.org/2000/svg">
<g filter="url(#filter0_d_392_2)">
<path fill-rule="evenodd" clip-rule="evenodd" d="M-42.8746 -306.32C-34.4131 -313.42 -21.7979 -312.317 -14.6979 -303.855L71.5646 -201.052L-0.178337 -165.386C-1.19805 -164.879 -1.84289 -163.839 -1.84289 -162.7V-60.9901L-83.5117 -20.3901C-84.5314 -19.8832 -85.1762 -18.8426 -85.1762 -17.7037V85.8648C-85.1762 87.0036 -84.5314 88.0442 -83.5117 88.5511L-1.80981 129.168C-1.83166 129.313 -1.84289 129.462 -1.84289 129.612V231.322L-83.5117 271.922C-84.5314 272.429 -85.1762 273.469 -85.1762 274.608V378.177C-85.1762 379.315 -84.5314 380.356 -83.5117 380.863L-1.80981 421.479C-1.81524 421.516 -1.82 421.552 -1.82415 421.589C-1.82635 421.608 -1.82836 421.628 -1.83019 421.648C-1.83862 421.739 -1.84289 421.831 -1.84289 421.924V523.634L-83.5117 564.234C-84.5314 564.741 -85.1762 565.781 -85.1762 566.92V670.489C-85.1762 671.627 -84.5314 672.668 -83.5117 673.175L-1.80981 713.791C-1.81786 713.845 -1.82452 713.899 -1.82964 713.954C-1.83843 714.047 -1.84289 714.141 -1.84289 714.236V815.946L-83.5117 856.545C-84.5314 857.052 -85.1762 858.093 -85.1762 859.232V962.8C-85.1762 963.939 -84.5314 964.98 -83.5117 965.487L-0.178337 1006.91C0.662849 1007.33 1.65137 1007.33 2.49262 1006.91L84.4905 966.151L156.202 1001.8L42.522 1097.19C34.0606 1104.29 21.4454 1103.19 14.3454 1094.72L-686.32 259.703C-693.42 251.241 -692.317 238.626 -683.855 231.526L-42.8746 -306.32ZM248.157 924.641L161.216 997.593L87.4905 960.942V861.091L167.824 821.155L248.157 861.091V924.641ZM254.157 919.606L359.707 831.039L333.49 818.006L253.715 857.665C253.999 858.128 254.157 858.668 254.157 859.232V919.606ZM364.722 826.832L497.157 715.705V712.946L416.824 673.01L336.49 712.946V812.797L364.722 826.832ZM680.953 525.189L671.824 514.309V520.651L680.953 525.189ZM567.397 389.859L665.824 507.159V520.651L585.49 560.587L505.157 520.651V420.8L567.397 389.859ZM563.43 385.131L457.603 259.011L421.159 277.129C421.05 277.183 420.938 277.231 420.824 277.271V374.495L502.493 415.095C502.599 415.148 502.702 415.207 502.8 415.271L563.43 385.131ZM582.49 644.102L519.488 696.967L502.157 705.583L421.824 665.647V565.796L502.157 525.86L582.49 565.796V644.102ZM688.904 535.842C692.472 543.796 690.512 553.461 683.503 559.342L588.49 639.067V565.796L668.824 525.86L688.904 535.842ZM254.157 567.453V668.298L333.49 707.737L413.824 667.801V567.95L333.49 528.014L254.157 567.453ZM170.824 714.236V813.294L250.157 852.733L330.49 812.797V712.946L251.491 673.673L170.791 713.791C170.813 713.937 170.824 714.086 170.824 714.236ZM170.824 421.924L170.824 421.905V421.463L252.493 380.863C252.513 380.853 252.534 380.842 252.554 380.832C252.595 380.81 252.636 380.787 252.676 380.764C252.767 380.71 252.855 380.652 252.939 380.59L331.49 419.64V519.491L251.157 559.427L170.824 519.491L170.824 421.924ZM84.4905 383.847L164.824 423.783L164.824 521.35L164.824 521.369V523.634L84.4905 563.57L4.15711 523.634V423.783L84.4905 383.847ZM254.157 277.271C254.271 277.231 254.383 277.183 254.493 277.129L336.49 236.365L414.824 275.307V374.495L334.49 414.431L254.157 374.495L254.157 277.271ZM420.172 270.919L453.636 254.283L347.221 127.462L339.49 131.305V230.493L419.159 270.099C419.561 270.298 419.904 270.581 420.172 270.919ZM333.49 228.529V131.305L253.157 91.3693L172.824 131.305V231.156L250.49 269.766L333.155 228.672C333.265 228.617 333.377 228.57 333.49 228.529ZM248.157 276.467L167.824 236.531L87.4905 276.467V376.318L166.042 415.368C166.103 415.322 166.167 415.279 166.232 415.238C166.256 415.223 166.28 415.209 166.304 415.195C166.337 415.175 166.37 415.157 166.404 415.139C166.432 415.124 166.46 415.109 166.488 415.095L248.157 374.495L248.157 276.467ZM256.157 86.1601V18.9371L343.253 122.734L336.49 126.096L256.157 86.1601ZM164.824 -89.9096L75.5321 -196.323L4.15711 -160.841V-60.9901L84.4905 -21.054L164.824 -60.9901V-89.9096ZM202.163 -45.4104L170.824 -82.7591V-60.9901L202.163 -45.4104ZM167.824 -55.7809L211.809 -33.9144L248.157 9.40319V84.0059L167.824 123.942L87.4905 84.0059V-15.8449L167.824 -55.7809ZM1.15711 -55.7809L-79.1762 -15.8449V84.0059L1.15711 123.942L81.4905 84.0059V-15.8449L1.15711 -55.7809ZM-79.1762 276.467L1.15711 236.531L81.4905 276.467V376.318L1.15711 416.254L-79.1762 376.318V276.467ZM164.824 131.471V231.322L84.4905 271.258L4.15711 231.322V131.471L84.4905 91.5349L164.824 131.471ZM337.49 519.491V419.64L417.824 379.704L498.157 419.64V519.491L417.824 559.427L337.49 519.491ZM1.15711 528.843L-79.1762 568.779V668.63L1.15711 708.566L81.4905 668.63V568.779L1.15711 528.843ZM87.4905 568.779V668.63L166.49 707.903L247.157 667.801V568.282L167.824 528.843L87.4905 568.779ZM84.4905 676.159L163.824 715.598V814.656C163.824 815.22 163.982 815.76 164.266 816.223L84.4905 855.882L4.15711 815.946V716.095L84.4905 676.159ZM-79.1762 861.091L1.15711 821.155L81.4905 861.091V960.942L1.15711 1000.88L-79.1762 960.942V861.091Z" fill="#FAD32F"/>
</g>
<g filter="url(#filter1_d_392_2)">
<path fill-rule="evenodd" clip-rule="evenodd" d="M1816.85 -241.679C1809.75 -250.141 1797.14 -251.244 1788.68 -244.144L1371 106.328V162.028L1450.17 201.384L1531.33 161.034V59.324C1531.33 58.1852 1531.98 57.1446 1533 56.6377L1616.33 15.2102C1617.17 14.7921 1618.16 14.7921 1619 15.2102L1700.67 55.808L1782.33 15.2102C1783.17 14.7921 1784.16 14.7921 1785 15.2102L1868.34 56.6377C1869.36 57.1446 1870 58.1852 1870 59.324V161.034L1951.67 201.634C1952.69 202.141 1953.33 203.181 1953.33 204.32V307.889C1953.33 309.027 1952.69 310.068 1951.67 310.575L1870 351.175V451.357L1951.67 491.957C1952.69 492.464 1953.33 493.505 1953.33 494.643V598.212C1953.33 599.351 1952.69 600.391 1951.67 600.898L1870 641.498V741.68L1951.67 782.28C1952.69 782.787 1953.33 783.828 1953.33 784.967V887.173L2034.67 927.608C2035.69 928.115 2036.33 929.155 2036.33 930.294V983.311L2495.41 598.103C2503.87 591.003 2504.97 578.388 2497.87 569.926L1816.85 -241.679ZM2030.33 988.345V932.153L1950 892.217L1869.67 932.153V1032L1937.89 1065.92L2030.33 988.345ZM1932.87 1070.13L1866.67 1037.21L1810.75 1065.01L1850.87 1112.82C1857.97 1121.28 1870.59 1122.39 1879.05 1115.29L1932.87 1070.13ZM1806.79 1060.28L1863.67 1032V932.153L1783.33 892.217L1703 932.153V936.593L1806.79 1060.28ZM1700.33 746.89L1620.67 786.494V838.472L1688.63 919.47L1701 925.618L1780.67 886.014V786.826L1700.33 746.89ZM1614 830.527L1549.18 753.275L1614 785.5V830.527ZM1617.67 780.622L1539.53 741.779L1537.33 739.159V641.498L1617.33 601.728L1697.33 641.498V741.018L1617.67 780.622ZM1867 926.612L1787.33 887.008V786.494L1867 746.89L1947.33 786.826V886.676L1867 926.612ZM1864 741.68L1785 780.954L1704 740.686V641.498L1783.67 601.894L1864 641.83V741.68ZM1780.67 596.353L1701.33 635.792L1620.67 595.69V496.502L1700.67 456.732L1780.67 496.502V596.353ZM1614 496.171V596.022L1533.67 635.958L1454.33 596.519V496.336L1534.33 456.566L1614 496.171ZM1452.17 602.142L1531.33 641.498V732.008L1431.14 612.597L1452.17 602.142ZM1448 597.513V497.331L1368 457.56L1320.75 481.048L1427.17 607.869L1448 597.513ZM1371 452.351L1450.17 491.707L1531.33 451.357V351.175L1452.17 311.819L1371 352.169V452.351ZM1210.37 349.499L1316.79 476.32L1365 452.351V352.501L1284.67 312.565L1210.37 349.499ZM1784 491.127L1704 451.357V351.175L1783.67 311.57L1864 351.506V451.357L1784 491.127ZM1787.33 596.685V496.171L1867 456.566L1947.33 496.502V596.353L1867 636.289L1787.33 596.685ZM1617.67 311.57L1537.33 351.506V451.357L1617.33 491.127L1697.33 451.357V351.175L1617.67 311.57ZM1206.21 344.537L1281.67 307.024V207.173L1262.29 197.543L1172.32 273.04C1163.86 280.14 1162.76 292.755 1169.86 301.216L1206.21 344.537ZM1267.31 193.335L1284.67 201.964L1365 162.028V111.363L1267.31 193.335ZM1448 207.007V307.19L1368 346.96L1287.67 307.024V207.173L1368 167.237L1448 207.007ZM1454.33 306.195L1534.33 345.966L1614 306.361V205.847L1534.33 166.243L1454.33 206.013V306.195ZM1704 161.034L1784 200.804L1864 161.034V61.1829L1783.67 21.2469L1704 60.8515V161.034ZM1787.33 205.847V306.361L1867 345.966L1947.33 306.03V206.179L1867 166.243L1787.33 205.847ZM1617.67 21.2469L1697.33 60.8515V161.034L1617.33 200.804L1537.33 161.034V61.1829L1617.67 21.2469ZM1780.67 206.179L1700.67 166.409L1620.67 206.179V306.03L1700.67 345.8L1780.67 306.03V206.179Z" fill="#FAD32F"/>
</g>
<defs>
<filter id="filter0_d_392_2" x="-695" y="-311" width="1389.65" height="1420.87" filterUnits="userSpaceOnUse" color-interpolation-filters="sRGB">
<feFlood flood-opacity="0" result="BackgroundImageFix"/>
<feColorMatrix in="SourceAlpha" type="matrix" values="0 0 0 0 0 0 0 0 0 0 0 0 0 0 0 0 0 0 127 0" result="hardAlpha"/>
<feOffset dy="4"/>
<feGaussianBlur stdDeviation="2"/>
<feComposite in2="hardAlpha" operator="out"/>
<feColorMatrix type="matrix" values="0 0 0 0 0 0 0 0 0 0 0 0 0 0 0 0 0 0 0.25 0"/>
<feBlend mode="normal" in2="BackgroundImageFix" result="effect1_dropShadow_392_2"/>
<feBlend mode="normal" in="SourceGraphic" in2="effect1_dropShadow_392_2" result="shape"/>
</filter>
<filter id="filter1_d_392_2" x="1161.18" y="-248.824" width="1345.37" height="1376.79" filterUnits="userSpaceOnUse" color-interpolation-filters="sRGB">
<feFlood flood-opacity="0" result="BackgroundImageFix"/>
<feColorMatrix in="SourceAlpha" type="matrix" values="0 0 0 0 0 0 0 0 0 0 0 0 0 0 0 0 0 0 127 0" result="hardAlpha"/>
<feOffset dy="4"/>
<feGaussianBlur stdDeviation="2"/>
<feComposite in2="hardAlpha" operator="out"/>
<feColorMatrix type="matrix" values="0 0 0 0 0 0 0 0 0 0 0 0 0 0 0 0 0 0 0.25 0"/>
<feBlend mode="normal" in2="BackgroundImageFix" result="effect1_dropShadow_392_2"/>
<feBlend mode="normal" in="SourceGraphic" in2="effect1_dropShadow_392_2" result="shape"/>
</filter>
</defs>
</svg>
