<svg width="45" height="45" viewBox="0 0 45 45" fill="none" xmlns="http://www.w3.org/2000/svg">
<path d="M22.5 5.625C12.1875 5.625 3.75 12.3375 3.75 20.625C3.79734 22.6175 4.28405 24.575 5.17537 26.3576C6.0667 28.1403 7.34065 29.7041 8.90625 30.9375C8.90625 32.0625 8.11875 35.0063 3.75 39.375C8.19375 39.1688 12.45 37.5 15.8813 34.6875C18.0188 35.3062 20.2687 35.625 22.5 35.625C32.8125 35.625 41.25 28.9125 41.25 20.625C41.25 12.3375 32.8125 5.625 22.5 5.625ZM22.5 31.875C14.2125 31.875 7.5 26.8312 7.5 20.625C7.5 14.4187 14.2125 9.375 22.5 9.375C30.7875 9.375 37.5 14.4187 37.5 20.625C37.5 26.8312 30.7875 31.875 22.5 31.875Z" fill="#FAD32F"/>
</svg>
