<svg width="45" height="45" viewBox="0 0 45 45" fill="none" xmlns="http://www.w3.org/2000/svg">
<path d="M16.4062 13.125C16.0333 13.125 15.6756 13.2732 15.4119 13.5369C15.1482 13.8006 15 14.1583 15 14.5312C15 14.9042 15.1482 15.2619 15.4119 15.5256C15.6756 15.7893 16.0333 15.9375 16.4062 15.9375H30.4688C30.8417 15.9375 31.1994 15.7893 31.4631 15.5256C31.7268 15.2619 31.875 14.9042 31.875 14.5312C31.875 14.1583 31.7268 13.8006 31.4631 13.5369C31.1994 13.2732 30.8417 13.125 30.4688 13.125H16.4062ZM13.125 22.0312C13.125 21.6583 13.2732 21.3006 13.5369 21.0369C13.8006 20.7732 14.1583 20.625 14.5312 20.625H26.7188C27.0917 20.625 27.4494 20.7732 27.7131 21.0369C27.9768 21.3006 28.125 21.6583 28.125 22.0312C28.125 22.4042 27.9768 22.7619 27.7131 23.0256C27.4494 23.2893 27.0917 23.4375 26.7188 23.4375H14.5312C14.1583 23.4375 13.8006 23.2893 13.5369 23.0256C13.2732 22.7619 13.125 22.4042 13.125 22.0312ZM18.2812 28.125C17.9083 28.125 17.5506 28.2732 17.2869 28.5369C17.0232 28.8006 16.875 29.1583 16.875 29.5312C16.875 29.9042 17.0232 30.2619 17.2869 30.5256C17.5506 30.7893 17.9083 30.9375 18.2812 30.9375H30.4688C30.8417 30.9375 31.1994 30.7893 31.4631 30.5256C31.7268 30.2619 31.875 29.9042 31.875 29.5312C31.875 29.1583 31.7268 28.8006 31.4631 28.5369C31.1994 28.2732 30.8417 28.125 30.4688 28.125H18.2812Z" fill="#FAD32F"/>
<path d="M3.75 7.03125C3.75 5.22 5.22 3.75 7.03125 3.75H37.9688C39.78 3.75 41.25 5.22 41.25 7.03125V37.9688C41.25 38.839 40.9043 39.6736 40.2889 40.2889C39.6736 40.9043 38.839 41.25 37.9688 41.25H7.03125C6.16101 41.25 5.32641 40.9043 4.71106 40.2889C4.0957 39.6736 3.75 38.839 3.75 37.9688V7.03125ZM7.03125 6.5625C6.90693 6.5625 6.7877 6.61189 6.69979 6.69979C6.61189 6.7877 6.5625 6.90693 6.5625 7.03125V37.9688C6.5625 38.2275 6.7725 38.4375 7.03125 38.4375H37.9688C38.0931 38.4375 38.2123 38.3881 38.3002 38.3002C38.3881 38.2123 38.4375 38.0931 38.4375 37.9688V7.03125C38.4375 6.90693 38.3881 6.7877 38.3002 6.69979C38.2123 6.61189 38.0931 6.5625 37.9688 6.5625H7.03125Z" fill="#FAD32F"/>
</svg>
